<?xml version="1.0" encoding="utf-8"?>
<!-- Generator: Adobe Illustrator 16.0.0, SVG Export Plug-In . SVG Version: 6.00 Build 0)  -->
<!DOCTYPE svg PUBLIC "-//W3C//DTD SVG 1.1//EN" "http://www.w3.org/Graphics/SVG/1.1/DTD/svg11.dtd">
<svg version="1.1" id="_x2211_π_xBF_ÃæÓ_x5F_1" xmlns="http://www.w3.org/2000/svg" xmlns:xlink="http://www.w3.org/1999/xlink"
	 x="0px" y="0px" width="119.334px" height="119.334px" viewBox="0 0 119.334 119.334" enable-background="new 0 0 119.334 119.334"
	 xml:space="preserve">
<g>
	<circle fill="transparent" class="fundo" cx="59.667" cy="59.667" r="59.667"/>
</g>
<g>
	<g>
		<path fill="#FFFFFF" class="stroke" d="M85.685,76.25H33.649c-2.405,0-4.362-1.956-4.362-4.363V39.111c0-2.405,1.957-4.362,4.362-4.362h52.035
			c2.405,0,4.362,1.957,4.362,4.362v32.775C90.047,74.293,88.09,76.25,85.685,76.25z M33.649,38.833
			c-0.147,0-0.277,0.13-0.277,0.278v32.775c0,0.147,0.13,0.278,0.277,0.278h52.035c0.148,0,0.278-0.131,0.278-0.278V39.111
			c0-0.148-0.13-0.278-0.278-0.278H33.649z"/>
	</g>
	<g>
		<path fill="#FFFFFF" class="stroke" d="M47.846,50.277h2.375l4.295,11.955h-2.749l-0.928-2.749h-3.806l-0.847,2.749h-2.701L47.846,50.277z
			 M47.717,57.385h2.423l-1.22-3.79L47.717,57.385z"/>
		<path fill="#FFFFFF" class="stroke" d="M55.722,50.277h4.555c2.57,0,3.693,1.058,3.693,2.976c0,1.091-0.538,2.246-1.823,2.604
			c1.384,0.309,2.311,1.27,2.311,2.896c0,2.049-1.285,3.479-3.937,3.479h-4.799V50.277z M59.854,55.107
			c0.894,0,1.74-0.291,1.74-1.464c0-0.894-0.65-1.269-1.659-1.269h-1.806v2.732H59.854z M60.146,60.15
			c1.058,0,1.758-0.52,1.758-1.562c0-1.09-0.667-1.594-1.79-1.594h-1.984v3.155H60.146z"/>
		<path fill="#FFFFFF" class="stroke" d="M65.972,56.376v-0.521c0-3.985,2.765-5.791,5.759-5.791c1.154,0,2.635,0.373,3.367,0.895l-0.716,2.082
			c-0.618-0.488-1.61-0.765-2.473-0.765c-1.806,0-3.416,1.106-3.416,3.497v0.521c0,2.163,1.432,3.806,3.384,3.806
			c0.797,0,2.196-0.357,2.83-0.894l0.684,2.147c-0.732,0.601-2.343,1.073-3.823,1.073C68.396,62.428,65.972,59.989,65.972,56.376z"
			/>
	</g>
	<g>
		<path fill="#FFFFFF" class="stroke" d="M89.495,84.586H29.839c-2.557,0-4.636-2.078-4.636-4.635V76.8c0-2.556,2.079-4.636,4.636-4.636h59.656
			c2.557,0,4.637,2.08,4.637,4.636v3.151C94.132,82.508,92.052,84.586,89.495,84.586z M29.839,76.25
			c-0.299,0-0.552,0.252-0.552,0.551v3.151c0,0.299,0.253,0.551,0.552,0.551h59.656c0.3,0,0.552-0.252,0.552-0.551V76.8
			c0-0.299-0.252-0.551-0.552-0.551H29.839z"/>
	</g>
	<g>
		<path fill="#FFFFFF" class="stroke" d="M75.903,74.801h-7.574c-1.128,0-2.043-0.915-2.043-2.041v-2.695c0-1.129,0.915-2.044,2.043-2.044h7.574
			c1.127,0,2.042,0.915,2.042,2.044v2.695C77.945,73.886,77.03,74.801,75.903,74.801z"/>
	</g>
	<g>
		
			<path fill="#FFFFFF" class="stroke" stroke="#1E345B" stroke-width="7" stroke-linecap="round" stroke-linejoin="round" stroke-miterlimit="10" d="
			M59.668,61.348"/>
	</g>
</g>
</svg>
