<?xml version="1.0" encoding="utf-8"?>
<!-- Generator: Adobe Illustrator 16.0.0, SVG Export Plug-In . SVG Version: 6.00 Build 0)  -->
<!DOCTYPE svg PUBLIC "-//W3C//DTD SVG 1.1//EN" "http://www.w3.org/Graphics/SVG/1.1/DTD/svg11.dtd">
<svg version="1.1" id="Capa_1" xmlns="http://www.w3.org/2000/svg" xmlns:xlink="http://www.w3.org/1999/xlink" x="0px" y="0px"
	 width="119.333px" height="119.333px" viewBox="0 0 119.333 119.333" enable-background="new 0 0 119.333 119.333"
	 xml:space="preserve">
<g>
	<circle fill="transparent" cx="59.667" cy="59.667" r="59.667"/>
</g>
<path fill="#FFFFFF" stroke="#FFFFFF" stroke-miterlimit="10" d="M89.738,77.798c-2.67-3.547-8.055-6.367-19.721-10.293v-1.613
	c0.029-0.023,0.059-0.047,0.088-0.07c2.666-2.172,3.541-8.168,3.76-10.125c1.146-0.97,1.941-2.762,2.125-4.862
	c0.109-1.252,0.039-2.37-0.189-3.306h2.535v-5.081l-4.053-0.829v-2.932c0-5.649-3.857-10.402-9.072-11.797v-1.495H54.122v1.439
	c-5.323,1.32-9.287,6.126-9.287,11.853v2.942l-3.839,0.829v5.071h2.535c-0.228,0.936-0.298,2.054-0.188,3.306
	c0.183,2.1,0.978,3.892,2.122,4.862c0.22,1.956,1.095,7.954,3.761,10.125c0.029,0.023,0.057,0.045,0.086,0.068v1.615
	c-11.668,3.926-17.044,6.74-19.717,10.291c-0.711,0.945-1.364,3.758-2.422,14.84l-0.124,1.303h65.233l-0.123-1.303
	C91.101,81.554,90.449,78.742,89.738,77.798z M49.323,70.013l10.333,16.982l10.359-16.979c10.5,3.574,15.557,6.199,17.811,9.197
	c0.342,0.543,0.932,3.152,1.838,12.346H29.668c0.907-9.193,1.497-11.803,1.829-12.332C33.766,76.212,38.814,73.589,49.323,70.013z
	 M47.727,54.32l-0.54-0.309c-0.616-0.353-1.32-1.628-1.474-3.385c-0.122-1.396,0.055-2.464,0.316-3.098h27.273
	c0.262,0.634,0.439,1.702,0.318,3.098c-0.154,1.757-0.859,3.033-1.475,3.385l-0.541,0.31l-0.053,0.62
	c-0.24,2.76-1.252,7.654-2.949,9.037c-3.596,2.93-6.33,4.236-8.863,4.236l-0.084-0.002l-0.063,0.002
	c-2.535,0-5.268-1.307-8.865-4.236c-1.692-1.381-2.706-6.275-2.948-9.038L47.727,54.32z M43.375,44.378l3.839-0.83v-4.862
	c0-4.406,2.91-8.146,6.908-9.397v13.299h2.379V27.773h6.331v14.815h2.379v-13.22c3.885,1.317,6.693,4.993,6.693,9.318v4.872
	l4.055,0.83v0.761H43.375V44.378z M59.593,70.593l0.063-0.002l0.084,0.002l0,0c2.457,0,4.967-0.92,7.902-2.922v0.652l-0.004,1.018
	l-7.98,13.082L51.691,69.33v-1.658C54.626,69.673,57.135,70.593,59.593,70.593z"/>
</svg>
