<?xml version="1.0" encoding="utf-8"?>
<!-- Generator: Adobe Illustrator 16.0.0, SVG Export Plug-In . SVG Version: 6.00 Build 0)  -->
<!DOCTYPE svg PUBLIC "-//W3C//DTD SVG 1.1//EN" "http://www.w3.org/Graphics/SVG/1.1/DTD/svg11.dtd">
<svg version="1.1" id="Layer_1" xmlns="http://www.w3.org/2000/svg" xmlns:xlink="http://www.w3.org/1999/xlink" x="0px" y="0px"
	 width="119.334px" height="119.334px" viewBox="0 0 119.334 119.334" enable-background="new 0 0 119.334 119.334"
	 xml:space="preserve">
<g>
	<circle fill="transparent" cx="59.667" cy="59.666" r="59.667" class="fundo"/>
</g>
<g>
	<g>
		<rect x="55.978" y="43.656" fill="#FFFFFF" class="stroke" width="2.766" height="35.848"/>
	</g>
	<g>
		<rect x="67.927" y="43.656" fill="#FFFFFF" class="stroke" width="2.766" height="35.848"/>
	</g>
	<g>
		<polygon fill="#FFFFFF" class="stroke" points="68.43,80.571 56.481,70.722 56.508,68.565 67.054,60.299 56.52,52.21 56.423,50.098 
			64.496,42.641 66.373,44.673 59.505,51.016 70.152,59.192 70.163,61.377 59.568,69.682 70.189,78.438 		"/>
	</g>
	<g>
		<rect x="27.649" y="42.273" fill="#FFFFFF" class="stroke" width="63.484" height="2.767"/>
	</g>
	<g>
		<polygon fill="#FFFFFF" class="stroke" points="28.691,44.84 27.649,42.273 63.073,26.439 64.168,28.981 		"/>
	</g>
	<g>
		<rect x="62.238" y="24.428" fill="#FFFFFF" class="stroke" width="2.766" height="18.422"/>
	</g>
	<g>
		<polygon fill="#FFFFFF" class="stroke" points="89.949,44.397 62.905,28.692 64.337,26.327 91.686,42.273 		"/>
	</g>
	<g>
		<polygon fill="#FFFFFF" class="stroke" points="41.062,68.889 32.241,68.889 32.241,43.656 35.007,43.656 35.007,66.123 38.296,66.123 
			38.296,43.656 41.062,43.656 		"/>
	</g>
	<g>
		<rect x="33.625" y="60.129" fill="#FFFFFF" class="stroke" width="6.054" height="2.766"/>
	</g>
	<g>
		<path fill="#FFFFFF" class="stroke" d="M83.632,94.907h-40.43l3.122-7.743h34.185L83.632,94.907z M47.3,92.141h32.233l-0.892-2.21h-30.45
			L47.3,92.141z"/>
	</g>
	<g>
		<path fill="#FFFFFF" class="stroke" d="M70.693,89.931H55.978v-11.81h14.715V89.931z M58.744,87.164h9.183v-6.277h-9.183V87.164z"/>
	</g>
	<g>
		<path fill="#FFFFFF" class="stroke" d="M91.686,52.496H77.013V42.273h14.673V52.496z M79.779,49.729h9.14V45.04h-9.14V49.729z"/>
	</g>
	<g>
		<path fill="#FFFFFF" class="stroke" d="M36.056,81.76c-2.709-0.204-4.888-2.406-5.065-5.117c-0.177-2.715,1.626-5.048,4.105-5.692v-3.444h2.767
			v4.718c0,0.728-0.59,1.317-1.318,1.317l0,0c-1.48,0-2.743,1.149-2.798,2.629c-0.058,1.556,1.19,2.839,2.732,2.839
			c1.185,0,2.196-0.757,2.574-1.813c0.196-0.544,0.692-0.921,1.271-0.921h0.078c0.914,0,1.581,0.894,1.288,1.76
			C40.913,80.333,38.654,81.955,36.056,81.76z"/>
	</g>
</g>
</svg>
