<?xml version="1.0" encoding="utf-8"?>
<!-- Generator: Adobe Illustrator 16.0.0, SVG Export Plug-In . SVG Version: 6.00 Build 0)  -->
<!DOCTYPE svg PUBLIC "-//W3C//DTD SVG 1.1//EN" "http://www.w3.org/Graphics/SVG/1.1/DTD/svg11.dtd">
<svg version="1.1" id="πœ_xBA_h_x5F_2" xmlns="http://www.w3.org/2000/svg" xmlns:xlink="http://www.w3.org/1999/xlink" x="0px"
	 y="0px" width="119.334px" height="119.334px" viewBox="0 0 119.334 119.334" enable-background="new 0 0 119.334 119.334"
	 xml:space="preserve">
<g>
	<circle fill="transparent" class="fundo" cx="59.667" cy="59.666" r="59.667"/>
</g>
<g>
	<path fill="#FFFFFF" class="stroke" d="M63.361,83.9h-9.125c-0.875,0-1.58-0.711-1.58-1.58v-8.615h-8.614c-0.877,0-1.582-0.711-1.582-1.58V63
		c0-0.876,0.705-1.58,1.582-1.58h8.614v-8.622c0-0.873,0.704-1.58,1.58-1.58h9.125c0.876,0,1.588,0.707,1.588,1.58v8.622h8.614
		c0.87,0,1.58,0.703,1.58,1.58v9.125c0,0.869-0.71,1.58-1.58,1.58h-8.614v8.615C64.949,83.189,64.237,83.9,63.361,83.9z
		 M55.814,80.741h5.974v-8.616c0-0.876,0.705-1.579,1.573-1.579h8.623v-5.967h-8.623c-0.868,0-1.573-0.704-1.573-1.579v-8.623
		h-5.974V63c0,0.875-0.702,1.579-1.579,1.579h-8.615v5.967h8.615c0.876,0,1.579,0.703,1.579,1.579V80.741z"/>
	<g>
		<path fill="#FFFFFF" class="stroke" d="M83.312,92.315H35.322c-0.966,0-1.76-0.787-1.76-1.758V53.711c0-0.973,0.793-1.762,1.76-1.762
			c0.979,0,1.765,0.79,1.765,1.762V88.79h44.458V53.711c0-0.973,0.791-1.762,1.766-1.762c0.972,0,1.758,0.79,1.758,1.762v36.846
			C85.069,91.528,84.283,92.315,83.312,92.315z"/>
		<path fill="#FFFFFF" class="stroke" d="M89.152,58.081c-0.363,0-0.73-0.11-1.055-0.324L59.664,38.814L31.23,57.757
			c-0.419,0.275-0.931,0.379-1.428,0.283c-0.497-0.104-0.937-0.394-1.212-0.815l-3.504-5.263c-0.581-0.875-0.345-2.058,0.529-2.641
			L58.608,27.34c0.635-0.427,1.477-0.427,2.111,0l33.001,21.981c0.419,0.279,0.709,0.717,0.808,1.21
			c0.103,0.497,0,1.011-0.284,1.431l-3.504,5.263C90.374,57.778,89.767,58.081,89.152,58.081z M59.664,34.618
			c0.367,0,0.739,0.106,1.056,0.32l27.91,18.59l1.393-2.093L59.664,31.216L29.313,51.438l1.393,2.09l27.902-18.59
			C58.927,34.725,59.292,34.618,59.664,34.618z"/>
	</g>
</g>
</svg>
