<?xml version="1.0" encoding="utf-8"?>
<!-- Generator: Adobe Illustrator 16.0.0, SVG Export Plug-In . SVG Version: 6.00 Build 0)  -->
<!DOCTYPE svg PUBLIC "-//W3C//DTD SVG 1.1//EN" "http://www.w3.org/Graphics/SVG/1.1/DTD/svg11.dtd">
<svg version="1.1" id="Capa_1" xmlns="http://www.w3.org/2000/svg" xmlns:xlink="http://www.w3.org/1999/xlink" x="0px" y="0px"
	 width="119.334px" height="119.334px" viewBox="0 0 119.334 119.334" enable-background="new 0 0 119.334 119.334"
	 xml:space="preserve">
<g>
	<circle fill="transparent" cx="59.667" cy="59.666" r="59.667" class="fundo"/>
</g>
<g>
	<path  class="stroke" fill="#FFFFFF" stroke="#FFFFFF" stroke-width="1.3" stroke-miterlimit="10" d="M40.06,77.674v4.689
		c0,1.09,0.886,1.975,1.974,1.975h2.28c1.089,0,1.975-0.885,1.975-1.975v-4.689H40.06L40.06,77.674z M60.772,37.92h8.23v-2.923
		h-8.23V37.92L60.772,37.92z M50.331,37.92h8.23v-2.923h-8.23V37.92L50.331,37.92z M70.833,77.674H48.5v4.689
		c0,2.309-1.878,4.186-4.186,4.186h-2.28c-2.308,0-4.185-1.877-4.185-4.186v-4.775c-3.412-0.531-6.03-3.49-6.03-7.047v-8.527
		c0-3.157,2.082-5.917,5.044-6.823l2.928-12.728c0.585-2.548,3.049-4.543,5.609-4.543h2.72v-4.028c0-0.611,0.495-1.106,1.105-1.106
		h20.883c0.609,0,1.105,0.495,1.105,1.106v4.028h2.719c2.561,0,5.025,1.995,5.611,4.543l2.926,12.728
		c2.963,0.905,5.045,3.667,5.045,6.823v8.527c0,3.557-2.619,6.516-6.031,7.047v4.775c0,2.309-1.877,4.186-4.184,4.186h-2.281
		c-2.309,0-4.186-1.877-4.186-4.186V77.674L70.833,77.674z M79.272,77.674h-6.229v4.689c0,1.09,0.887,1.975,1.975,1.975h2.281
		c1.088,0,1.973-0.885,1.973-1.975V77.674L79.272,77.674z M45.4,40.131c-1.521,0-3.103,1.294-3.455,2.828l-3.079,13.385
		c-0.098,0.426-0.438,0.754-0.865,0.838c-2.301,0.449-3.971,2.482-3.971,4.832v8.527c0,2.713,2.209,4.922,4.925,4.922h41.423
		c2.717,0,4.926-2.209,4.926-4.922v-8.527c0-2.349-1.67-4.381-3.973-4.832c-0.428-0.084-0.766-0.412-0.865-0.838l-3.078-13.385
		c-0.352-1.534-1.934-2.828-3.455-2.828H45.4L45.4,40.131z M44.444,54.074h30.412l-2.076-8.967l-26.23,0.004L44.444,54.074
		L44.444,54.074z M76.26,56.285H43.048c-0.338,0-0.656-0.154-0.866-0.419s-0.287-0.61-0.21-0.939l2.625-11.173
		c0.117-0.5,0.563-0.853,1.076-0.853l27.983-0.006c0.516,0,0.961,0.355,1.078,0.856l2.551,11.017c0.051,0.127,0.08,0.266,0.08,0.411
		C77.366,55.79,76.87,56.285,76.26,56.285L76.26,56.285z M76.793,71.031c-2.623,0-4.756-2.133-4.756-4.752
		c0-2.623,2.133-4.758,4.756-4.758c2.621,0,4.754,2.135,4.754,4.758C81.547,68.898,79.415,71.031,76.793,71.031L76.793,71.031z
		 M76.793,63.732c-1.404,0-2.547,1.143-2.547,2.547c0,1.4,1.143,2.541,2.547,2.541c1.402,0,2.543-1.141,2.543-2.541
		C79.336,64.875,78.196,63.732,76.793,63.732L76.793,63.732z M42.542,71.031c-2.622,0-4.756-2.133-4.756-4.752
		c0-2.623,2.134-4.758,4.756-4.758c2.623,0,4.757,2.135,4.757,4.758C47.298,68.898,45.165,71.031,42.542,71.031L42.542,71.031z
		 M42.542,63.732c-1.403,0-2.545,1.143-2.545,2.547c0,1.4,1.142,2.541,2.545,2.541c1.404,0,2.546-1.141,2.546-2.541
		C45.087,64.875,43.946,63.732,42.542,63.732L42.542,63.732z M67.354,71.92H51.977c-0.802,0-1.455-0.656-1.455-1.459v-7.625
		c0-0.678,0.419-1.244,1.091-1.479c0.073-0.025,0.149-0.045,0.226-0.053c0.217-0.027,5.334-0.671,7.789-0.671
		c2.514,0,7.646,0.644,7.865,0.671c0.133,0.016,0.262,0.057,0.379,0.119c0.775,0.412,0.939,0.996,0.939,1.412v7.625
		C68.811,71.264,68.157,71.92,67.354,71.92L67.354,71.92z M52.734,69.707H66.6v-6.285c-1.449-0.17-5.088-0.576-6.973-0.576
		c-1.837,0-5.449,0.404-6.894,0.576V69.707L52.734,69.707z"/>
</g>
</svg>
