<?xml version="1.0" encoding="utf-8"?>
<!-- Generator: Adobe Illustrator 16.0.0, SVG Export Plug-In . SVG Version: 6.00 Build 0)  -->
<!DOCTYPE svg PUBLIC "-//W3C//DTD SVG 1.1//EN" "http://www.w3.org/Graphics/SVG/1.1/DTD/svg11.dtd">
<svg version="1.1" id="Layer_6" xmlns="http://www.w3.org/2000/svg" xmlns:xlink="http://www.w3.org/1999/xlink" x="0px" y="0px"
	 width="119.334px" height="119.334px" viewBox="0 0 119.334 119.334" enable-background="new 0 0 119.334 119.334"
	 xml:space="preserve">
<g>
	<circle fill="transparent" cx="59.667" cy="59.666" r="59.667" class="fundo" />
</g>
<g>
	<path class="stroke" fill="#FFFFFF" d="M47.075,40.135h0.689v11.566c0,0.755,0.61,1.366,1.366,1.366h20.062c0.755,0,1.366-0.611,1.366-1.366
		V40.135h0.678c0.756,0,1.366-0.611,1.366-1.366v-2.241c0-0.46-0.231-0.89-0.616-1.144l-12.078-7.912
		c-0.459-0.296-1.044-0.296-1.497,0l-12.083,7.912c-0.387,0.253-0.619,0.683-0.619,1.144v2.241
		C45.708,39.523,46.319,40.135,47.075,40.135z M61.916,50.334h-3.399v-6.689h3.399V50.334z M59.157,30.249l10.712,7.016v0.138
		h-0.678c-0.755,0-1.365,0.611-1.365,1.366v11.566h-3.861V42.62c0-0.565-0.46-1.024-1.025-1.024h-5.448
		c-0.564,0-1.024,0.459-1.024,1.024v7.714h-5.972V38.769c0-0.755-0.612-1.366-1.366-1.366h-0.688L59.157,30.249z"/>
	<path class="stroke" fill="#FFFFFF" d="M57.769,73.816c0.302-3.084,1.105-11.287-11.585-17.58c-0.035-0.016-3.538-1.559-5.652-4.2
		c-0.325-0.407-0.626-0.849-0.92-1.278c-0.072-0.107-0.146-0.212-0.219-0.316c-0.189-1.566-0.976-7.746-1.684-9.551
		c-0.672-1.717-2.377-3.453-3.122-4.157c-0.285-1.076-1.168-3.52-3.396-3.949c-1.097-0.206-2.218,0.012-3.127,0.627
		c-1.212,0.826-2.022,2.284-2.41,4.333c-0.107,0.567-2.583,14.01,1.259,24.819c0.8,2.246,2.794,5.014,5.027,6.935l10.62,8.016
		c0.944,0.759,2.263,2.392,2.345,2.711l-0.697,10.401c-0.024,0.373,0.107,0.747,0.366,1.022c0.259,0.274,0.619,0.435,0.999,0.435
		h10.844c0.362,0,0.712-0.146,0.968-0.405c0.255-0.257,0.401-0.606,0.398-0.972c-0.038-6.289-0.084-15.86-0.059-16.421
		L57.769,73.816z M35.164,41.888c0.317,0.805,0.736,3.248,1.086,5.65c-0.604-0.32-1.18-0.518-1.74-0.652l-0.412-6.647
		C34.542,40.786,34.96,41.367,35.164,41.888z M55.048,73.553l-0.046,0.504c-0.036,0.438,0.011,9.959,0.041,15.295h-8.011
		l0.601-9.137c-0.144-1.877-2.735-4.327-3.396-4.855l-10.581-7.984c-1.809-1.561-3.525-3.917-4.17-5.726
		c-3.597-10.121-1.249-22.859-1.147-23.397c0.31-1.632,0.856-2.304,1.262-2.581c0.31-0.211,0.664-0.283,1.076-0.203
		c0.515,0.1,0.944,0.957,1.179,1.675l0.604,9.713c-0.497,0.124-0.963,0.317-1.35,0.659c-1.527,1.344-1.5,3.846,0.072,6.694
		c3.05,5.519,10.033,12.76,10.329,13.067c0.528,0.544,1.39,0.557,1.932,0.031c0.541-0.525,0.558-1.39,0.031-1.932
		c-0.069-0.072-7.028-7.29-9.901-12.488c-1.094-1.984-0.916-3.094-0.66-3.322c0.251-0.22,1.332-0.255,3.083,1.034
		c0.397,0.291,0.888,1.009,1.363,1.702c0.333,0.483,0.675,0.981,1.041,1.439c2.535,3.166,6.529,4.926,6.634,4.97
		C55.972,64.139,55.35,70.497,55.048,73.553z"/>
	<path class="stroke" fill="#FFFFFF" d="M93.684,37.745c-0.387-2.049-1.198-3.507-2.412-4.333c-0.908-0.618-2.018-0.838-3.128-0.627
		c-2.228,0.429-3.11,2.873-3.395,3.949c-0.744,0.705-2.451,2.44-3.125,4.157c-0.706,1.807-1.493,7.993-1.683,9.554
		c-0.073,0.104-0.145,0.208-0.217,0.315c-0.293,0.428-0.595,0.871-0.921,1.275c-2.102,2.627-5.616,4.187-5.711,4.23
		c-12.631,6.264-11.829,14.467-11.528,17.551l0.043,0.44c0.026,0.59-0.019,10.161-0.056,16.45c-0.003,0.365,0.141,0.715,0.396,0.972
		c0.257,0.259,0.606,0.405,0.97,0.405h10.844c0.378,0,0.738-0.16,0.997-0.435c0.26-0.275,0.39-0.649,0.366-1.022l-0.698-10.19
		c0.085-0.524,1.402-2.163,2.318-2.898l10.718-8.095c2.167-1.868,4.16-4.633,4.958-6.879C96.261,51.777,93.791,38.313,93.684,37.745
		z M84.171,41.886c0.205-0.525,0.621-1.105,1.064-1.652l-0.413,6.652c-0.558,0.135-1.135,0.333-1.738,0.652
		C83.435,45.135,83.856,42.691,84.171,41.886z M89.849,61.649c-0.646,1.809-2.358,4.162-4.098,5.67L75.07,75.383
		c-0.633,0.505-3.219,2.959-3.368,5.024l0.601,8.944h-8.01c0.029-5.336,0.077-14.857,0.039-15.289l-0.045-0.51
		c-0.302-3.056-0.923-9.414,9.956-14.811c0.167-0.073,4.162-1.833,6.696-5.001c0.366-0.457,0.708-0.955,1.039-1.438
		c0.476-0.693,0.969-1.412,1.366-1.702c1.755-1.29,2.827-1.251,3.079-1.034c0.256,0.227,0.435,1.338-0.659,3.322
		c-2.871,5.198-9.833,12.416-9.902,12.488c-0.525,0.542-0.511,1.406,0.031,1.932s1.407,0.513,1.933-0.031
		c0.296-0.308,7.281-7.549,10.329-13.067c1.572-2.848,1.599-5.352,0.071-6.695c-0.39-0.341-0.854-0.533-1.349-0.657l0.602-9.713
		c0.234-0.717,0.665-1.576,1.181-1.675c0.402-0.079,0.766-0.009,1.075,0.203c0.408,0.277,0.954,0.949,1.265,2.581
		C91.101,38.79,93.441,51.548,89.849,61.649z"/>
</g>
</svg>
