<?xml version="1.0" encoding="utf-8"?>
<!-- Generator: Adobe Illustrator 16.0.0, SVG Export Plug-In . SVG Version: 6.00 Build 0)  -->
<!DOCTYPE svg PUBLIC "-//W3C//DTD SVG 1.1//EN" "http://www.w3.org/Graphics/SVG/1.1/DTD/svg11.dtd">
<svg version="1.1" id="Layer_1" xmlns="http://www.w3.org/2000/svg" xmlns:xlink="http://www.w3.org/1999/xlink" x="0px" y="0px"
	 width="589.438px" height="404.225px" viewBox="0 0 589.438 404.225" enable-background="new 0 0 589.438 404.225"
	 xml:space="preserve">
<g>
	<path fill="#003975" d="M63.852,275.889h32.4c4.753,0,9.073,0.592,12.961,1.781s7.197,2.918,9.936,5.186
		c2.736,2.269,4.842,5.059,6.318,8.371c1.476,3.312,2.217,7.056,2.217,11.23v0.216c0,4.467-0.812,8.39-2.431,11.774
		c-1.623,3.385-3.872,6.227-6.751,8.533c-2.882,2.303-6.318,4.03-10.317,5.182c-3.996,1.155-8.335,1.728-13.015,1.728H84.805v21.603
		H63.852V275.889z M94.74,313.474c3.741,0,6.678-0.884,8.8-2.659c2.125-1.772,3.188-4.178,3.188-7.222v-0.217
		c0-3.258-1.063-5.739-3.188-7.438c-2.122-1.702-5.094-2.551-8.908-2.551h-9.827v20.087H94.74z M151.045,275.351h20.199
		l32.184,76.142h-22.464l-5.507-13.499h-29.161l-5.399,13.499h-22.035L151.045,275.351z M169.409,321.79l-8.428-21.493l-8.53,21.493
		H169.409z M206.453,275.889h35.75c5.832,0,10.763,0.719,14.797,2.16c4.031,1.441,7.308,3.455,9.827,6.048
		c4.464,4.32,6.697,10.19,6.697,17.605v0.217c0,5.831-1.403,10.654-4.212,14.473c-2.809,3.817-6.589,6.731-11.342,8.749
		l18.039,26.352h-24.191l-15.233-22.896h-0.216h-8.962v22.896h-20.953V275.889z M241.232,312.179c3.599,0,6.369-0.811,8.316-2.431
		c1.944-1.619,2.914-3.798,2.914-6.534v-0.217c0-3.022-1.008-5.274-3.025-6.751c-2.014-1.473-4.788-2.214-8.316-2.214h-13.715
		v18.146H241.232z M311.195,275.351h20.196l32.187,76.142h-22.464l-5.511-13.499h-29.161l-5.402,13.499h-22.031L311.195,275.351z
		 M329.556,321.79l-8.425-21.493l-8.532,21.493H329.556z M366.601,275.889h19.594l31.169,39.962v-39.962h20.628v75.604h-18.397
		l-32.362-41.474v41.474h-20.631V275.889z M473.204,275.351h20.195l32.184,76.142h-22.464l-5.511-13.499h-29.157l-5.402,13.499
		h-22.031L473.204,275.351z M491.563,321.682l-8.424-21.493l-8.533,21.493H491.563z M481.177,256.914l-5.056,11.508h20.136
		l4.893-11.508H481.177z"/>
	<path fill="#00803E" d="M512.084,404.225c-1.988,0-3.802-0.351-5.446-1.05c-1.642-0.7-3.055-1.648-4.231-2.851
		c-1.174-1.203-2.097-2.605-2.759-4.213c-0.661-1.606-0.992-3.318-0.992-5.131v-0.073c0-1.817,0.331-3.528,0.992-5.135
		c0.662-1.604,1.598-3.017,2.797-4.229c1.203-1.216,2.625-2.18,4.267-2.889c1.645-0.713,3.458-1.069,5.446-1.069
		c1.985,0,3.802,0.351,5.443,1.05c1.645,0.7,3.055,1.651,4.231,2.851c1.177,1.203,2.097,2.605,2.759,4.213
		c0.661,1.606,0.992,3.318,0.992,5.131v0.077c0,1.813-0.331,3.524-0.992,5.131c-0.662,1.607-1.594,3.017-2.794,4.231
		c-1.202,1.213-2.624,2.177-4.27,2.886C515.886,403.868,514.069,404.225,512.084,404.225 M512.157,400.066
		c1.275,0,2.446-0.238,3.513-0.716c1.065-0.48,1.981-1.13,2.742-1.954c0.761-0.82,1.355-1.781,1.781-2.885
		c0.43-1.104,0.646-2.281,0.646-3.531v-0.073c0-1.254-0.217-2.435-0.646-3.554c-0.426-1.114-1.027-2.084-1.8-2.905
		c-0.773-0.82-1.699-1.476-2.778-1.969c-1.081-0.49-2.255-0.735-3.531-0.735c-1.275,0-2.446,0.238-3.512,0.719
		c-1.069,0.478-1.982,1.127-2.743,1.947c-0.76,0.824-1.354,1.785-1.784,2.889c-0.43,1.104-0.643,2.281-0.643,3.531v0.077
		c0,1.25,0.213,2.434,0.643,3.547c0.43,1.117,1.03,2.087,1.804,2.908c0.773,0.82,1.695,1.476,2.777,1.969
		C509.704,399.821,510.882,400.066,512.157,400.066z M469.555,378.028h9.602c2.011,0,3.859,0.324,5.539,0.977
		c1.68,0.649,3.127,1.55,4.339,2.704c1.216,1.152,2.154,2.508,2.816,4.063c0.661,1.559,0.992,3.245,0.992,5.058v0.077
		c0,1.813-0.331,3.506-0.992,5.074c-0.662,1.571-1.601,2.933-2.816,4.085c-1.212,1.151-2.659,2.059-4.339,2.72
		c-1.68,0.665-3.528,0.996-5.539,0.996h-9.602V378.028z M479.156,399.662c1.353,0,2.577-0.216,3.681-0.646
		c1.104-0.43,2.043-1.031,2.813-1.801c0.773-0.773,1.375-1.692,1.804-2.762c0.43-1.065,0.644-2.224,0.644-3.474v-0.073
		c0-1.254-0.214-2.418-0.644-3.497c-0.429-1.078-1.03-2.004-1.804-2.777c-0.77-0.772-1.708-1.381-2.813-1.822
		c-1.104-0.439-2.328-0.662-3.681-0.662h-5.077v17.514H479.156z M448.144,377.844h4.196l11.329,25.938h-4.781l-2.612-6.22h-12.175
		l-2.65,6.22h-4.636L448.144,377.844z M454.618,393.554l-4.451-10.302l-4.412,10.302H454.618z M420.039,382.222h-8.167v-4.193
		h20.896v4.193h-8.167v21.561h-4.562V382.222z M397.708,404.148c-1.988,0-3.888-0.338-5.701-1.012
		c-1.816-0.675-3.496-1.709-5.039-3.108l2.721-3.235c1.25,1.078,2.513,1.905,3.789,2.481c1.275,0.575,2.723,0.865,4.339,0.865
		c1.4,0,2.511-0.296,3.331-0.885c0.821-0.589,1.231-1.371,1.231-2.354v-0.073c0-0.464-0.08-0.874-0.239-1.23
		c-0.158-0.356-0.451-0.694-0.881-1.012c-0.43-0.318-1.018-0.614-1.766-0.885s-1.725-0.538-2.927-0.808
		c-1.371-0.318-2.593-0.682-3.659-1.085c-1.068-0.404-1.963-0.897-2.685-1.474c-0.726-0.575-1.276-1.278-1.657-2.112
		c-0.379-0.837-0.57-1.842-0.57-3.02v-0.073c0-1.104,0.223-2.115,0.662-3.034c0.442-0.92,1.05-1.706,1.823-2.354
		c0.77-0.649,1.698-1.158,2.777-1.527c1.078-0.369,2.255-0.551,3.531-0.551c1.887,0,3.585,0.274,5.097,0.828
		c1.508,0.55,2.92,1.354,4.247,2.408l-2.428,3.423c-1.177-0.859-2.345-1.515-3.496-1.97c-1.151-0.454-2.316-0.681-3.496-0.681
		c-1.323,0-2.352,0.293-3.09,0.882c-0.734,0.592-1.104,1.313-1.104,2.173v0.073c0,0.489,0.086,0.926,0.258,1.304
		c0.172,0.382,0.483,0.726,0.938,1.031c0.455,0.309,1.078,0.595,1.877,0.865c0.795,0.271,1.807,0.551,3.035,0.847
		c1.349,0.343,2.542,0.722,3.585,1.139c1.044,0.417,1.909,0.926,2.593,1.527c0.688,0.601,1.209,1.301,1.565,2.1
		c0.356,0.795,0.535,1.721,0.535,2.777v0.073c0,1.202-0.229,2.281-0.681,3.235c-0.455,0.957-1.085,1.766-1.896,2.428
		c-0.809,0.661-1.778,1.167-2.908,1.511C400.295,403.977,399.058,404.148,397.708,404.148z M362.572,378.028h19.096v4.047H367.1
		v6.697h12.914v4.047H367.1v6.916h14.753v4.047h-19.28V378.028z M329.613,404.225c-1.989,0-3.802-0.351-5.447-1.05
		c-1.642-0.7-3.051-1.648-4.228-2.851c-1.178-1.203-2.1-2.605-2.762-4.213c-0.662-1.606-0.992-3.318-0.992-5.131v-0.073
		c0-1.817,0.33-3.528,0.992-5.135c0.662-1.604,1.594-3.017,2.797-4.229c1.202-1.216,2.624-2.18,4.266-2.889
		c1.645-0.713,3.459-1.069,5.447-1.069c1.984,0,3.802,0.351,5.443,1.05c1.645,0.7,3.054,1.651,4.23,2.851
		c1.178,1.203,2.097,2.605,2.762,4.213c0.659,1.606,0.99,3.318,0.99,5.131v0.077c0,1.813-0.331,3.524-0.99,5.131
		c-0.665,1.607-1.597,3.017-2.8,4.231c-1.199,1.213-2.624,2.177-4.266,2.886C333.415,403.868,331.599,404.225,329.613,404.225z
		 M329.687,400.066c1.275,0,2.446-0.238,3.512-0.716c1.066-0.48,1.982-1.13,2.742-1.954c0.758-0.82,1.355-1.781,1.782-2.885
		c0.429-1.104,0.646-2.281,0.646-3.531v-0.073c0-1.254-0.217-2.435-0.646-3.554c-0.427-1.114-1.028-2.084-1.801-2.905
		c-0.773-0.82-1.699-1.476-2.777-1.969c-1.079-0.49-2.256-0.735-3.531-0.735c-1.276,0-2.447,0.238-3.516,0.719
		c-1.066,0.478-1.979,1.127-2.739,1.947c-0.761,0.824-1.355,1.785-1.785,2.889c-0.43,1.104-0.643,2.281-0.643,3.531v0.077
		c0,1.25,0.213,2.434,0.643,3.547c0.43,1.117,1.031,2.087,1.801,2.908c0.776,0.82,1.702,1.476,2.78,1.969
		C327.233,399.821,328.41,400.066,329.687,400.066z M287.083,378.028h9.601c2.011,0,3.859,0.324,5.539,0.977
		c1.68,0.649,3.128,1.55,4.34,2.704c1.215,1.152,2.15,2.508,2.815,4.063c0.662,1.559,0.993,3.245,0.993,5.058v0.077
		c0,1.813-0.331,3.506-0.993,5.074c-0.665,1.571-1.601,2.933-2.815,4.085c-1.212,1.151-2.66,2.059-4.34,2.72
		c-1.68,0.665-3.528,0.996-5.539,0.996h-9.601V378.028z M296.685,399.662c1.35,0,2.577-0.216,3.682-0.646
		c1.104-0.43,2.042-1.031,2.813-1.801c0.772-0.773,1.374-1.692,1.804-2.762c0.43-1.065,0.643-2.224,0.643-3.474v-0.073
		c0-1.254-0.213-2.418-0.643-3.497c-0.43-1.078-1.031-2.004-1.804-2.777c-0.771-0.772-1.709-1.381-2.813-1.822
		c-1.104-0.439-2.332-0.662-3.682-0.662h-5.074v17.514H296.685z M254.124,404.225c-1.989,0-3.805-0.351-5.447-1.05
		c-1.642-0.7-3.054-1.648-4.231-2.851c-1.177-1.203-2.096-2.605-2.758-4.213c-0.662-1.606-0.993-3.318-0.993-5.131v-0.073
		c0-1.817,0.331-3.528,0.993-5.135c0.662-1.604,1.594-3.017,2.796-4.229c1.203-1.216,2.625-2.18,4.267-2.889
		c1.645-0.713,3.458-1.069,5.447-1.069c1.985,0,3.802,0.351,5.443,1.05c1.642,0.7,3.054,1.651,4.231,2.851
		c1.177,1.203,2.097,2.605,2.758,4.213c0.662,1.606,0.993,3.318,0.993,5.131v0.077c0,1.813-0.331,3.524-0.993,5.131
		c-0.662,1.607-1.594,3.017-2.796,4.231c-1.203,1.213-2.625,2.177-4.266,2.886C257.922,403.868,256.109,404.225,254.124,404.225z
		 M254.197,400.066c1.272,0,2.443-0.238,3.512-0.716c1.066-0.48,1.979-1.13,2.743-1.954c0.757-0.82,1.352-1.781,1.782-2.885
		c0.429-1.104,0.646-2.281,0.646-3.531v-0.073c0-1.254-0.216-2.435-0.646-3.554c-0.43-1.114-1.031-2.084-1.801-2.905
		c-0.773-0.82-1.699-1.476-2.781-1.969c-1.079-0.49-2.255-0.735-3.528-0.735c-1.276,0-2.447,0.238-3.516,0.719
		c-1.066,0.478-1.979,1.127-2.739,1.947c-0.76,0.824-1.355,1.785-1.785,2.889c-0.43,1.104-0.646,2.281-0.646,3.531v0.077
		c0,1.25,0.216,2.434,0.646,3.547c0.429,1.117,1.031,2.087,1.8,2.908c0.773,0.82,1.699,1.476,2.781,1.969
		C251.744,399.821,252.921,400.066,254.197,400.066z M211.298,378.028h4.196l13.795,17.807v-17.807h4.451v25.754h-3.789
		l-14.199-18.322v18.322h-4.454V378.028z M183.229,378.028h11.482c1.616,0,3.051,0.229,4.301,0.681
		c1.25,0.455,2.294,1.085,3.127,1.896c0.687,0.709,1.215,1.533,1.581,2.462c0.369,0.933,0.554,1.964,0.554,3.093v0.073
		c0,1.053-0.153,2.004-0.461,2.851c-0.305,0.846-0.729,1.594-1.266,2.246c-0.541,0.648-1.187,1.199-1.934,1.654
		c-0.748,0.455-1.575,0.802-2.482,1.047l6.952,9.751h-5.332l-6.328-8.979h-0.073h-5.593v8.979h-4.527V378.028z M194.376,390.796
		c1.619,0,2.908-0.389,3.865-1.161c0.955-0.771,1.432-1.82,1.432-3.144v-0.073c0-1.4-0.464-2.459-1.396-3.185
		c-0.932-0.723-2.243-1.085-3.936-1.085h-6.585v8.647H194.376z M157.109,378.028h19.095v4.047h-14.568v6.697h12.914v4.047h-12.914
		v6.916h14.752v4.047h-19.279V378.028z M125.839,378.028h5.004l7.763,19.792l7.724-19.792h4.894l-10.706,25.938h-3.971
		L125.839,378.028z M107.593,404.225c-1.985,0-3.802-0.351-5.443-1.05c-1.645-0.7-3.054-1.648-4.231-2.851
		c-1.18-1.203-2.097-2.605-2.761-4.213c-0.662-1.606-0.993-3.318-0.993-5.131v-0.073c0-1.817,0.331-3.528,0.993-5.135
		c0.665-1.604,1.597-3.017,2.799-4.229c1.2-1.216,2.622-2.18,4.266-2.889c1.642-0.713,3.458-1.069,5.444-1.069
		c1.988,0,3.802,0.351,5.447,1.05c1.642,0.7,3.051,1.651,4.228,2.851c1.178,1.203,2.1,2.605,2.759,4.213
		c0.665,1.606,0.996,3.318,0.996,5.131v0.077c0,1.813-0.331,3.524-0.996,5.131c-0.659,1.607-1.591,3.017-2.793,4.231
		c-1.203,1.213-2.625,2.177-4.27,2.886C111.395,403.868,109.578,404.225,107.593,404.225z M107.667,400.066
		c1.276,0,2.446-0.238,3.512-0.716c1.069-0.48,1.982-1.13,2.742-1.954c0.761-0.82,1.355-1.781,1.782-2.885
		c0.43-1.104,0.646-2.281,0.646-3.531v-0.073c0-1.254-0.216-2.435-0.646-3.554c-0.426-1.114-1.028-2.084-1.801-2.905
		c-0.773-0.82-1.699-1.476-2.777-1.969c-1.079-0.49-2.255-0.735-3.531-0.735s-2.447,0.238-3.512,0.719
		c-1.069,0.478-1.982,1.127-2.743,1.947c-0.76,0.824-1.355,1.785-1.785,2.889c-0.426,1.104-0.643,2.281-0.643,3.531v0.077
		c0,1.25,0.216,2.434,0.643,3.547c0.43,1.117,1.031,2.087,1.804,2.908c0.77,0.82,1.699,1.476,2.777,1.969
		C105.213,399.821,106.391,400.066,107.667,400.066z M77.207,404.225c-2.01,0-3.84-0.338-5.484-1.012
		c-1.642-0.675-3.045-1.606-4.209-2.797c-1.168-1.189-2.068-2.59-2.705-4.196c-0.639-1.604-0.958-3.354-0.958-5.239v-0.073
		c0-1.792,0.325-3.497,0.974-5.116c0.652-1.619,1.565-3.035,2.742-4.247c1.177-1.216,2.58-2.18,4.212-2.889
		c1.629-0.713,3.417-1.069,5.351-1.069c1.129,0,2.154,0.083,3.073,0.242s1.772,0.385,2.555,0.681
		c0.786,0.293,1.53,0.655,2.227,1.085c0.7,0.43,1.381,0.926,2.042,1.489l-2.87,3.42c-0.49-0.417-0.993-0.796-1.508-1.14
		c-0.516-0.343-1.053-0.633-1.62-0.865c-0.563-0.232-1.184-0.416-1.858-0.55c-0.674-0.137-1.416-0.204-2.224-0.204
		c-1.177,0-2.275,0.245-3.293,0.735c-1.018,0.493-1.902,1.148-2.65,1.969c-0.748,0.821-1.336,1.785-1.766,2.889
		c-0.43,1.104-0.643,2.269-0.643,3.493v0.077c0,1.323,0.207,2.548,0.623,3.678c0.417,1.126,1.012,2.097,1.785,2.907
		c0.773,0.809,1.692,1.444,2.761,1.912c1.066,0.465,2.262,0.697,3.585,0.697c1.225,0,2.374-0.176,3.439-0.531
		c1.065-0.356,1.995-0.827,2.777-1.416v-4.82h-6.586v-3.938h10.963v10.817c-0.636,0.541-1.342,1.056-2.116,1.546
		c-0.773,0.49-1.606,0.919-2.5,1.285c-0.897,0.369-1.858,0.658-2.889,0.865C79.415,404.119,78.333,404.225,77.207,404.225z"/>
	<g>
		<defs>
			<path id="SVGID_1_" d="M213.596,6.513h-0.325c-31.566,0.003-62.792,7.047-93.779,20.845l-55.64,201.99v0.006
				c37.786-16.826,75.874-23.6,114.592-19.827c31.531,3.08,60.116,11.642,88.457,19.827c28.306,8.186,56.916,16.754,88.45,19.833
				c38.677,3.773,76.81-3.01,114.596-19.833l55.637-201.996C487.8,44.185,449.668,50.964,410.991,47.191
				c-31.535-3.08-60.146-11.647-88.454-19.833c-28.337-8.183-56.919-16.753-88.453-19.827C227.237,6.863,220.41,6.522,213.596,6.513
				"/>
		</defs>
		<clipPath id="SVGID_2_">
			<use xlink:href="#SVGID_1_"  overflow="visible"/>
		</clipPath>
		
			<linearGradient id="SVGID_3_" gradientUnits="userSpaceOnUse" x1="-125.5264" y1="502.4375" x2="-123.0497" y2="502.4375" gradientTransform="matrix(182.7147 51.0332 -48.8326 174.8358 47546.2578 -81369.6094)">
			<stop  offset="0" style="stop-color:#818385"/>
			<stop  offset="0.06" style="stop-color:#BCBEC0"/>
			<stop  offset="0.12" style="stop-color:#D1D3D4"/>
			<stop  offset="0.19" style="stop-color:#FFFFFF"/>
			<stop  offset="0.36" style="stop-color:#FFFFFF"/>
			<stop  offset="0.5" style="stop-color:#BCBEC0"/>
			<stop  offset="0.64" style="stop-color:#FFFFFF"/>
			<stop  offset="0.79" style="stop-color:#FFFFFF"/>
			<stop  offset="0.88" style="stop-color:#BCBEC0"/>
			<stop  offset="1" style="stop-color:#818385"/>
		</linearGradient>
		<polygon clip-path="url(#SVGID_2_)" fill="url(#SVGID_3_)" points="0,235.125 492.172,372.592 589.438,24.348 97.266,-113.119 		
			"/>
	</g>
	<g>
		<defs>
			<path id="SVGID_4_" d="M208.349,6.5h-0.232c-2.415,0.003-4.842,0.041-7.292,0.114c55.968,21.723,94.381,59.754,137.27,92.278
				c38.409,29.094,85.832,63.326,152.616,55.07l34.872-126.605c-59.426,26.454-114.22,23.6-167.941,9.805
				C309.188,24.73,263.611,6.5,208.349,6.5z"/>
		</defs>
		<clipPath id="SVGID_5_">
			<use xlink:href="#SVGID_4_"  overflow="visible"/>
		</clipPath>
		
			<linearGradient id="SVGID_6_" gradientUnits="userSpaceOnUse" x1="-124.978" y1="502.2461" x2="-122.1122" y2="502.2461" gradientTransform="matrix(129.3436 32.5029 -24.1977 96.2936 28475.75 -44268.418)">
			<stop  offset="0" style="stop-color:#007336"/>
			<stop  offset="0.37" style="stop-color:#007336"/>
			<stop  offset="0.46" style="stop-color:#00833B"/>
			<stop  offset="0.55" style="stop-color:#07953F"/>
			<stop  offset="0.77" style="stop-color:#12B24B"/>
			<stop  offset="0.91" style="stop-color:#007634"/>
			<stop  offset="1" style="stop-color:#003C10"/>
		</linearGradient>
		<polygon clip-path="url(#SVGID_5_)" fill="url(#SVGID_6_)" points="164.019,152.97 506.294,238.98 562.39,15.749 220.117,-70.261 
					"/>
	</g>
	<g>
		<defs>
			<path id="SVGID_7_" d="M98.727,102.748L63.852,229.354c59.4-26.457,114.223-23.59,167.945-9.802
				c50.614,12.993,98.119,32.316,156.81,30.551c-57.759-22.416-96.9-62.111-141.469-95.42
				c-33.542-25.066-74.115-53.178-128.441-53.178C112.238,101.504,105.583,101.902,98.727,102.748z"/>
		</defs>
		<clipPath id="SVGID_8_">
			<use xlink:href="#SVGID_7_"  overflow="visible"/>
		</clipPath>
		
			<linearGradient id="SVGID_9_" gradientUnits="userSpaceOnUse" x1="-125.3755" y1="502.8574" x2="-122.509" y2="502.8574" gradientTransform="matrix(127.0281 34.037 -31.9683 119.3073 32052.1484 -55597.6641)">
			<stop  offset="0" style="stop-color:#003C10"/>
			<stop  offset="0.09" style="stop-color:#007634"/>
			<stop  offset="0.23" style="stop-color:#12B24B"/>
			<stop  offset="0.45" style="stop-color:#07953F"/>
			<stop  offset="0.54" style="stop-color:#00833B"/>
			<stop  offset="0.63" style="stop-color:#007336"/>
			<stop  offset="1" style="stop-color:#007336"/>
		</linearGradient>
		<polygon clip-path="url(#SVGID_8_)" fill="url(#SVGID_9_)" points="26.26,241.796 366.852,333.059 426.198,111.577 85.606,20.314 
					"/>
	</g>
	<g>
		<defs>
			<path id="SVGID_10_" d="M249.816,116.126c-5.683,21.093,11.074,41.426,34.922,48.45c22.521,6.621,49.382-3.767,54.854-23.991
				c5.708-21.083-11.049-41.422-34.9-48.44c-4.584-1.349-9.35-1.992-14.078-1.992C272.115,90.153,254.175,100.019,249.816,116.126"
				/>
		</defs>
		<clipPath id="SVGID_11_">
			<use xlink:href="#SVGID_10_"  overflow="visible"/>
		</clipPath>
		
			<linearGradient id="SVGID_12_" gradientUnits="userSpaceOnUse" x1="-120.3896" y1="503.1621" x2="-117.7823" y2="503.1621" gradientTransform="matrix(38.7394 10.3802 -9.7395 36.3485 9807.0166 -16922.8086)">
			<stop  offset="0" style="stop-color:#005BAB"/>
			<stop  offset="0.2" style="stop-color:#00529C"/>
			<stop  offset="0.34" style="stop-color:#004B90"/>
			<stop  offset="0.5" style="stop-color:#003975"/>
			<stop  offset="0.8" style="stop-color:#00529C"/>
			<stop  offset="1" style="stop-color:#005BAB"/>
		</linearGradient>
		<polygon clip-path="url(#SVGID_11_)" fill="url(#SVGID_12_)" points="223.872,165.766 338.524,196.489 365.56,95.581 
			250.911,64.86 		"/>
	</g>
</g>
</svg>
